Coordinates
version=1
nRows=25
nColumns=23
inDegrees=yes

Units are S.I. units (second, meters, Newtons, ...)
If the header above contains a line with 'inDegrees', this indicates whether rotational values are in degrees (yes) or radians (no).

endheader
time	pelvis_tilt	pelvis_list	pelvis_rotation	pelvis_tx	pelvis_ty	pelvis_tz	hip_flexion_r	hip_adduction_r	hip_rotation_r	knee_angle_r	knee_angle_r_beta	ankle_angle_r	subtalar_angle_r	mtp_angle_r	hip_flexion_l	hip_adduction_l	hip_rotation_l	knee_angle_l	knee_angle_l_beta	ankle_angle_l	subtalar_angle_l	mtp_angle_l
      7.50000000	     -4.36415822	     -5.00186196	     -1.77020842	      2.25786716	      1.07867980	      1.04145600	     29.10551002	      3.85832131	     -8.50388567	     54.11924665	      0.94455904	     10.49480431	     17.78878406	      0.00000000	    -14.52311800	     -3.95319515	     -3.26111906	     16.80421104	      0.29328881	     -9.25797851	      2.37631184	      0.00000000
      7.50666667	     -5.21769134	     -4.78160352	     -2.53175827	      2.25912213	      1.08176382	      1.04323752	     29.56103427	      4.38364454	     -8.07766709	     50.08689067	      0.87418115	     10.93932210	     18.61054706	      0.00000000	    -14.33806654	     -3.72263729	     -3.67991134	     16.98277910	      0.29640541	    -10.40057817	      2.64016052	      0.00000000
      7.51333333	     -5.86070004	     -4.65507387	     -3.15477962	      2.26035405	      1.08463247	      1.04471521	     29.66729212	      4.95216178	     -7.72308718	     45.93616359	      0.80173730	     11.28346971	     19.20062228	      0.00000000	    -14.19680382	     -3.64609675	     -4.14966893	     17.57902913	      0.30681194	    -11.05274632	      3.37468873	      0.00000000
      7.52000000	     -6.55404721	     -4.42597258	     -3.70543707	      2.26127004	      1.08680325	      1.04606701	     29.84378614	      5.36129067	     -7.41832745	     41.92298020	      0.73169404	     11.75070395	     20.07666947	      0.00000000	    -13.77481166	     -3.49505115	     -4.48673055	     18.63445777	      0.32523264	    -11.39638394	      3.98137129	      0.00000000
      7.52666667	     -7.14141553	     -4.25345979	     -4.18559623	      2.26200398	      1.08856526	      1.04730842	     29.85275037	      5.82368034	     -7.08118123	     37.93361573	      0.66206649	     12.22308585	     20.91668429	      0.00000000	    -13.30009133	     -3.43529493	     -4.81537361	     20.06866883	      0.35026435	    -11.43591049	      4.65688989	      0.00000000
      7.53333333	     -7.60953794	     -4.19416954	     -4.59195047	      2.26260412	      1.08995975	      1.04842840	     29.65825661	      6.42030136	     -6.60254433	     33.94725374	      0.59249135	     12.65227341	     21.50230478	      0.00000000	    -12.81911584	     -3.53209290	     -5.18653981	     21.82210098	      0.38086751	    -11.22131618	      5.44921998	      0.00000000
      7.54000000	     -7.95373593	     -4.26923343	     -4.94639147	      2.26307231	      1.09103141	      1.04945372	     29.22348269	      7.19702052	     -5.83403555	     29.92032270	      0.52220814	     12.95478626	     21.65035989	      0.00000000	    -12.36562426	     -3.79751432	     -5.59656105	     23.83942186	      0.41607640	    -10.81598633	      6.27293646	      0.00000000
      7.54666667	     -8.19293157	     -4.53462595	     -5.22166352	      2.26345913	      1.09189201	      1.05033720	     28.43947870	      8.27894951	     -4.34743548	     25.61393596	      0.44704752	     12.84848137	     20.66612522	      0.00000000	    -11.95028889	     -4.27648906	     -5.95163270	     26.04402980	      0.45455407	    -10.37465071	      6.93894076	      0.00000000
      7.55333333	     -8.15316284	     -5.09634681	     -5.38056532	      2.26401663	      1.09269271	      1.05099074	     27.04613334	      9.62359499	     -2.30198364	     20.99284552	      0.36639427	     12.48233424	     19.12698358	      0.00000000	    -11.80661596	     -5.14611046	     -6.56010856	     28.38749031	      0.49545517	     -9.91097565	      7.89667285	      0.00000000
      7.56000000	     -7.85019520	     -5.85447215	     -5.34147002	      2.26476461	      1.09360298	      1.05104039	     24.55862883	     11.26930662	      2.15220893	     15.06997411	      0.26302067	     10.53658888	     14.36328854	      0.00000000	    -11.92647881	     -6.15539127	     -6.81587118	     30.74594197	      0.53661792	     -9.48254542	      8.27822935	      0.00000000
      7.56666667	     -7.24376433	     -6.54286935	     -5.05905833	      2.26604684	      1.09406895	      1.05018181	     21.37058573	     12.28068190	      7.04677419	      8.78678930	      0.15335840	      8.14694602	      9.62254820	      0.00000000	    -12.34251317	     -7.09077290	     -6.96950272	     33.10246172	      0.57774695	     -9.12024994	      8.58162831	      0.00000000
      7.57333333	     -6.67826443	     -6.77966439	     -4.82731740	      2.26710718	      1.09341552	      1.04922024	     19.00139704	     12.36262977	      9.97752774	      4.24783406	      0.07413869	      7.09578488	      7.90905026	      0.00000000	    -12.57430494	     -7.53936808	     -7.05930281	     35.60277659	      0.62138567	     -8.87972710	      8.53944147	      0.00000000
      7.58000000	     -6.46149682	     -6.71349963	     -4.97584729	      2.26743486	      1.09163300	      1.04905678	     18.04098055	     12.20825626	     11.10462090	      2.00500226	      0.03499389	      7.56402187	      8.46263687	      0.00000000	    -12.30051285	     -7.71280017	     -7.47621564	     38.35713852	      0.66945836	     -8.66143742	      8.27601149	      0.00000000
      7.58666667	     -6.32106416	     -6.60133025	     -5.28026867	      2.26732787	      1.08929184	      1.04928852	     17.68732930	     12.11657140	     11.59610223	      1.08954160	      0.01901609	      8.41063146	      9.38667517	      0.00000000	    -11.86571151	     -7.82802175	     -7.92916798	     41.22670761	      0.71954179	     -8.57574679	      7.52545236	      0.00000000
      7.59333333	     -5.97612361	     -6.72298006	     -5.58919327	      2.26735125	      1.08686368	      1.04968661	     17.30528586	     12.30472115	     11.46441073	      0.92403598	      0.01612747	      9.64095133	     11.34232458	      0.00000000	    -11.65187697	     -8.27481042	     -8.62488827	     44.15620550	      0.77067117	     -8.62558761	      7.01819559	      0.00000000
      7.60000000	     -5.47199221	     -6.92184453	     -5.76618337	      2.26749835	      1.08418468	      1.04978215	     16.64211957	     12.52173428	     11.89185237	      0.81926947	      0.01429895	     10.08750041	     11.86785976	      0.00000000	    -11.56037579	     -8.76819592	     -9.06924133	     47.08808942	      0.82184220	     -8.82621155	      5.94501798	      0.00000000
      7.60666667	     -4.78784601	     -7.27680563	     -5.83382337	      2.26785868	      1.08140168	      1.04976613	     15.72885990	     12.87306211	     12.37266857	      0.92405819	      0.01612786	     10.35865238	     12.40142467	      0.00000000	    -11.64225860	     -9.46833974	     -9.48412312	     50.01307324	      0.87289280	     -9.21243319	      4.79913559	      0.00000000
      7.61333333	     -3.89088745	     -7.79919414	     -5.77678060	      2.26844279	      1.07848813	      1.04958826	     14.56493351	     13.37046167	     12.85717201	      1.26432828	      0.02206669	     10.24332497	     12.65868554	      0.00000000	    -11.93656661	    -10.34040015	     -9.75786539	     52.90481595	      0.92336323	     -9.80175043	      3.54140091	      0.00000000
      7.62000000	     -2.75081395	     -8.38212027	     -5.61315384	      2.26905162	      1.07548572	      1.04929811	     13.23948179	     13.93528546	     13.22780437	      2.01470497	      0.03516324	      9.74753508	     12.49466134	      0.00000000	    -12.44665531	    -11.30836796	     -9.99845496	     55.76597362	      0.97329985	    -10.57210990	      2.09261844	      0.00000000
      7.62666667	     -1.82071948	     -8.96846643	     -5.57237959	      2.26931945	      1.07178465	      1.04937870	     12.41440773	     14.63980892	     13.46344785	      3.49141105	      0.06093662	      8.90069378	     11.98531074	      0.00000000	    -12.64914783	    -12.33619929	    -10.26530281	     58.74569117	      1.02530573	    -11.42649985	      0.67605694	      0.00000000
      7.63333333	     -0.86512319	     -9.57503440	     -5.60782017	      2.26928835	      1.06767250	      1.04976487	     11.85088922	     15.45838543	     13.36073397	      5.67881340	      0.09911399	      7.84310358	     11.13267904	      0.00000000	    -12.83541375	    -13.40292095	    -10.54788217	     61.73558852	      1.07748929	    -12.48338348	     -0.83027484	      0.00000000
      7.64000000	     -0.10946186	    -10.05116557	     -5.72478542	      2.26884243	      1.06293882	      1.05033231	     11.87418344	     16.21545651	     12.80234805	      8.64972555	      0.15096619	      6.80125844	     10.08535626	      0.00000000	    -12.70581358	    -14.39730931	    -10.82315557	     64.77523425	      1.13054111	    -13.74708767	     -2.38329628	      0.00000000
      7.64666667	     -0.55038336	     -9.63044069	     -6.38574752	      2.26721517	      1.05582114	      1.05196452	     15.09501167	     15.93563589	      7.92011111	     15.22390865	      0.26570733	      9.11688463	     15.02937416	      0.00000000	    -10.96275787	    -14.43390876	    -10.89332010	     68.17269954	      1.18983807	    -15.01784703	     -4.02005294	      0.00000000
      7.65333333	     -0.34384151	     -9.38797039	     -6.62817813	      2.26613161	      1.04922182	      1.05250507	     16.75587910	     15.46550795	      4.74831096	     20.16180111	      0.35188981	      9.91034625	     17.45740088	      0.00000000	     -9.89044849	    -14.60133838	    -10.70586328	     71.33077316	      1.24495685	    -16.50014345	     -5.67179967	      0.00000000
      7.66000000	     -0.12172130	     -9.08059354	     -6.70651938	      2.26504711	      1.04252273	      1.05256862	     18.16596825	     14.75463382	      2.10673245	     24.70050781	      0.43110519	     10.71299202	     19.29359994	      0.00000000	     -8.69965012	    -14.65395895	    -10.24656794	     74.41869016	      1.29885117	    -18.14953354	     -7.30622665	      0.00000000
